<svg width="1182" height="345" viewBox="0 0 1182 345" fill="none"
    xmlns="http://www.w3.org/2000/svg">
    <g clip-path="url(#clip0_602_15)">
        <g clip-path="url(#clip1_602_15)">
            <g clip-path="url(#clip2_602_15)">
                <path d="M410.846 114.052C406.388 114.052 402.724 112.764 399.851 110.189C397.078 107.515 395.691 104.246 395.691 100.383C395.691 96.4213 397.078 93.1527 399.851 90.5774C402.724 87.9031 406.388 86.5659 410.846 86.5659C415.204 86.5659 418.77 87.9031 421.543 90.5774C424.415 93.1527 425.852 96.4213 425.852 100.383C425.852 104.246 424.415 107.515 421.543 110.189C418.77 112.764 415.204 114.052 410.846 114.052ZM423.623 216.271C423.623 226.473 421.048 233.802 415.897 238.259C410.747 242.816 403.566 245.094 394.354 245.094H384.4V223.551H390.491C393.264 223.551 395.245 223.006 396.434 221.916C397.623 220.827 398.217 219.044 398.217 216.568V122.669H423.623V216.271ZM523.753 122.669V205.573H498.347V194.282C495.772 197.946 492.256 200.918 487.799 203.196C483.44 205.375 478.587 206.465 473.238 206.465C466.899 206.465 461.303 205.078 456.45 202.305C451.596 199.432 447.832 195.322 445.158 189.973C442.484 184.624 441.147 178.335 441.147 171.104V122.669H466.404V167.687C466.404 173.234 467.84 177.542 470.713 180.613C473.585 183.683 477.448 185.219 482.301 185.219C487.254 185.219 491.166 183.683 494.039 180.613C496.911 177.542 498.347 173.234 498.347 167.687V122.669H523.753ZM567.408 134.407C569.885 130.544 573.302 127.424 577.66 125.046C582.018 122.669 587.119 121.481 592.963 121.481C599.797 121.481 605.988 123.214 611.535 126.681C617.081 130.147 621.44 135.1 624.609 141.538C627.878 147.976 629.512 155.454 629.512 163.973C629.512 172.491 627.878 180.019 624.609 186.556C621.44 192.994 617.081 197.996 611.535 201.562C605.988 205.028 599.797 206.762 592.963 206.762C587.218 206.762 582.117 205.573 577.66 203.196C573.302 200.819 569.885 197.748 567.408 193.985V245.094H542.002V122.669H567.408V134.407ZM603.66 163.973C603.66 157.634 601.877 152.681 598.312 149.115C594.845 145.451 590.536 143.618 585.386 143.618C580.334 143.618 576.026 145.451 572.46 149.115C568.993 152.78 567.26 157.782 567.26 164.121C567.26 170.46 568.993 175.462 572.46 179.127C576.026 182.792 580.334 184.624 585.386 184.624C590.437 184.624 594.746 182.792 598.312 179.127C601.877 175.363 603.66 170.312 603.66 163.973ZM727.528 122.669L675.527 244.945H648.189L667.207 202.75L633.481 122.669H661.858L681.024 174.521L700.042 122.669H727.528ZM782.921 184.03V205.573H769.995C760.784 205.573 753.603 203.345 748.452 198.887C743.302 194.331 740.726 186.952 740.726 176.75V143.767H730.623V122.669H740.726V102.463H766.132V122.669H782.773V143.767H766.132V177.047C766.132 179.523 766.727 181.306 767.915 182.396C769.104 183.485 771.085 184.03 773.858 184.03H782.921ZM875.222 162.784C875.222 165.161 875.074 167.637 874.777 170.213H817.279C817.675 175.363 819.309 179.325 822.182 182.099C825.153 184.773 828.768 186.11 833.028 186.11C839.367 186.11 843.774 183.436 846.251 178.087H873.291C871.904 183.535 869.379 188.438 865.714 192.796C862.148 197.154 857.641 200.571 852.194 203.047C846.746 205.524 840.654 206.762 833.919 206.762C825.797 206.762 818.566 205.028 812.227 201.562C805.888 198.095 800.936 193.143 797.37 186.704C793.804 180.266 792.021 172.739 792.021 164.121C792.021 155.504 793.755 147.976 797.221 141.538C800.787 135.1 805.74 130.147 812.079 126.681C818.418 123.214 825.698 121.481 833.919 121.481C841.942 121.481 849.073 123.165 855.314 126.532C861.554 129.9 866.407 134.704 869.874 140.944C873.44 147.184 875.222 154.464 875.222 162.784ZM849.222 156.098C849.222 151.74 847.736 148.273 844.765 145.698C841.793 143.123 838.079 141.835 833.622 141.835C829.363 141.835 825.747 143.073 822.776 145.55C819.904 148.026 818.121 151.542 817.427 156.098H849.222ZM883.574 163.973C883.574 155.454 885.159 147.976 888.328 141.538C891.597 135.1 896.004 130.147 901.551 126.681C907.098 123.214 913.289 121.481 920.123 121.481C925.967 121.481 931.068 122.669 935.426 125.046C939.883 127.424 943.3 130.544 945.678 134.407V122.669H971.084V205.573H945.678V193.836C943.201 197.699 939.735 200.819 935.277 203.196C930.919 205.573 925.818 206.762 919.974 206.762C913.239 206.762 907.098 205.028 901.551 201.562C896.004 197.996 891.597 192.994 888.328 186.556C885.159 180.019 883.574 172.491 883.574 163.973ZM945.678 164.121C945.678 157.782 943.895 152.78 940.329 149.115C936.862 145.451 932.603 143.618 927.552 143.618C922.5 143.618 918.191 145.451 914.626 149.115C911.159 152.681 909.426 157.634 909.426 163.973C909.426 170.312 911.159 175.363 914.626 179.127C918.191 182.792 922.5 184.624 927.552 184.624C932.603 184.624 936.862 182.792 940.329 179.127C943.895 175.462 945.678 170.46 945.678 164.121ZM984.412 164.121C984.412 155.504 986.146 147.976 989.612 141.538C993.178 135.1 998.081 130.147 1004.32 126.681C1010.66 123.214 1017.89 121.481 1026.01 121.481C1036.41 121.481 1045.08 124.205 1052.01 129.652C1059.05 135.1 1063.65 142.776 1065.83 152.681H1038.79C1036.51 146.342 1032.1 143.172 1025.57 143.172C1020.91 143.172 1017.2 145.005 1014.42 148.67C1011.65 152.235 1010.26 157.386 1010.26 164.121C1010.26 170.857 1011.65 176.057 1014.42 179.721C1017.2 183.287 1020.91 185.07 1025.57 185.07C1032.1 185.07 1036.51 181.901 1038.79 175.561H1065.83C1063.65 185.268 1059.05 192.895 1052.01 198.442C1044.98 203.988 1036.31 206.762 1026.01 206.762C1017.89 206.762 1010.66 205.028 1004.32 201.562C998.081 198.095 993.178 193.143 989.612 186.704C986.146 180.266 984.412 172.739 984.412 164.121ZM1130.38 121.778C1139.89 121.778 1147.52 124.947 1153.26 131.287C1159.01 137.527 1161.88 146.144 1161.88 157.138V205.573H1136.62V160.555C1136.62 155.009 1135.18 150.7 1132.31 147.63C1129.44 144.559 1125.58 143.024 1120.72 143.024C1115.87 143.024 1112.01 144.559 1109.14 147.63C1106.26 150.7 1104.83 155.009 1104.83 160.555V205.573H1079.42V95.6289H1104.83V133.812C1107.4 130.147 1110.92 127.226 1115.38 125.046C1119.83 122.867 1124.83 121.778 1130.38 121.778Z" fill="#2E2E2E"/>
            </g>
            <path d="M202.125 126.886L229.598 142.748V206.193L174.653 237.916L119.707 206.193V142.748L174.653 111.025L202.125 126.886Z" stroke="#475569" stroke-width="10.4192"/>
            <path d="M174.653 117.165L224.28 145.818V203.123L174.653 231.776L125.025 203.123V145.818L174.653 117.165Z" fill="#EA580C"/>
            <path d="M174.653 81.3928L255.227 128.019V221.27L214.94 244.583L174.653 267.896" stroke="#475569" stroke-width="10.4192" stroke-linecap="round"/>
            <path d="M174.826 54.3032L279.191 114.387V234.555L174.826 294.638L70.461 234.555V114.387" stroke="#475569" stroke-width="10.4192" stroke-linecap="round"/>
        </g>
    </g>
    <defs>
        <clipPath id="clip0_602_15">
            <rect width="1182" height="345" fill="white"/>
        </clipPath>
        <clipPath id="clip1_602_15">
            <rect width="1186.73" height="345.26" fill="white" transform="translate(1)"/>
        </clipPath>
        <clipPath id="clip2_602_15">
            <rect width="814.368" height="230.598" fill="white" transform="translate(373.259 58.9067)"/>
        </clipPath>
    </defs>
</svg>
