<svg version="1.1" id="Layer_1" xmlns="http://www.w3.org/2000/svg" xmlns:xlink="http://www.w3.org/1999/xlink" x="0px" y="0px" viewBox="0 0 287 17" style="enable-background:new 0 0 287 17;" xml:space="preserve">
                            <style type="text/css">
                                .st0{fill:#FFFFFF;}
                                .st1{fill:#FFCA05;}
                                .st2{fill:#75C6C4;}
                                .st3{fill:#005DA4;}
                                .st4{fill:#2B4269;}
                            </style>
                            <g id="schmidt-futures-logo-copy">
                                <g id="logo" transform="translate(0.000000, -1.000000)">
                                    <g id="text" transform="translate(57.000000, 0.839378)">
                                        <path id="Fill-1" class="st0" d="M7.3,7.7C3.8,6.9,3,6.1,3,4.6v0C3,3.1,4.3,2,6.4,2C8,2,9.5,2.5,11,3.7l1-1.4
                                            c-1.6-1.3-3.3-2-5.6-2c-3,0-5.2,1.8-5.2,4.3v0c0,2.6,1.7,3.8,5.3,4.6c3.3,0.7,4.1,1.5,4.1,3v0c0,1.6-1.4,2.7-3.5,2.7
                                            c-2.2,0-3.8-0.7-5.5-2.3l-1.1,1.3c1.9,1.7,4,2.5,6.5,2.5c3.2,0,5.4-1.8,5.4-4.5v0C12.5,9.7,10.8,8.4,7.3,7.7"></path>
                                        <path id="Fill-3" class="st0" d="M23.2,15.1c-3.5,0-6.2-2.9-6.2-6.6v0c0-3.7,2.6-6.5,6.2-6.5c2.2,0,3.7,0.9,5,2.2l1.2-1.3
                                            c-1.6-1.5-3.3-2.5-6.2-2.5c-4.7,0-8.1,3.7-8.1,8.2v0c0,4.6,3.4,8.2,8,8.2c2.9,0,4.7-1.1,6.4-2.8l-1.2-1.2
                                            C26.8,14.3,25.4,15.1,23.2,15.1"></path>
                                        <polygon id="Fill-5" class="st0" points="43.9,7.7 34.7,7.7 34.7,0.6 32.9,0.6 32.9,16.5 34.7,16.5 34.7,9.3 43.9,9.3 43.9,16.5 
                                            45.7,16.5 45.7,0.6 43.9,0.6 			"></polygon>
                                        <polygon id="Fill-7" class="st0" points="58.5,9.3 52.7,0.6 50.9,0.6 50.9,16.5 52.6,16.5 52.6,3.6 58.4,12.1 58.5,12.1 
                                            64.3,3.6 64.3,16.5 66.1,16.5 66.1,0.6 64.3,0.6 			"></polygon>
                                        <polygon id="Fill-9" class="st0" points="71.9,16.5 73.7,16.5 73.7,0.6 71.9,0.6 			"></polygon>
                                        <path id="Fill-11" class="st0" d="M91.6,8.6c0,3.5-2.6,6.3-6.6,6.3h-3.7V2.2H85C89.1,2.2,91.6,5,91.6,8.6L91.6,8.6z M85,0.6h-5.5
                                            v15.9H85c5,0,8.5-3.5,8.5-8v0C93.5,4,90,0.6,85,0.6L85,0.6z"></path>
                                        <polygon id="Fill-12" class="st0" points="95.2,2.2 100.6,2.2 100.6,16.5 102.4,16.5 102.4,2.2 107.7,2.2 107.7,0.6 95.2,0.6 			
                                            "></polygon>
                                        <polygon id="Fill-13" class="st0" points="116.6,16.5 121,16.5 121,10.8 128.6,10.8 128.6,7.2 121,7.2 121,4.4 129.4,4.4 
                                            129.4,0.6 116.6,0.6 			"></polygon>
                                        <path id="Fill-14" class="st0" d="M142.2,9.5c0,2.2-1.2,3.3-2.9,3.3c-1.8,0-2.9-1.1-2.9-3.4V0.6h-4.5v8.9c0,5,2.8,7.3,7.4,7.3
                                            c4.5,0,7.5-2.3,7.5-7.4V0.6h-4.5V9.5z"></path>
                                        <polygon id="Fill-15" class="st0" points="149.1,4.4 153.8,4.4 153.8,16.5 158.3,16.5 158.3,4.4 163,4.4 163,0.6 149.1,0.6 			
                                            "></polygon>
                                        <path id="Fill-16" class="st0" d="M175.8,9.5c0,2.2-1.2,3.3-2.9,3.3c-1.8,0-2.9-1.1-2.9-3.4V0.6h-4.5v8.9c0,5,2.8,7.3,7.4,7.3
                                            c4.5,0,7.5-2.3,7.5-7.4V0.6h-4.5V9.5z"></path>
                                        <path id="Fill-17" class="st0" d="M192.8,6.3c0,1.2-0.9,1.9-2.4,1.9h-2.9V4.4h2.9C191.9,4.4,192.8,5,192.8,6.3L192.8,6.3z
                                            M197.2,6.1L197.2,6.1c0-1.6-0.5-2.8-1.4-3.8c-1.1-1.1-2.8-1.7-5.2-1.7h-7.5v15.9h4.4v-4.8h1.9l3.2,4.8h5.1l-3.8-5.5
                                            C195.9,10.1,197.2,8.5,197.2,6.1L197.2,6.1z"></path>
                                        <polygon id="Fill-18" class="st0" points="204.5,10.2 212.1,10.2 212.1,6.7 204.5,6.7 204.5,4.3 212.9,4.3 212.9,0.6 200.1,0.6 
                                            200.1,16.5 213.1,16.5 213.1,12.7 204.5,12.7 			"></polygon>
                                        <path id="Fill-19" class="st0" d="M223.2,6.6c-2.2-0.5-2.8-0.8-2.8-1.5v0c0-0.6,0.5-1,1.6-1c1.4,0,3,0.5,4.5,1.6l2.2-3.1
                                            c-1.7-1.4-3.8-2.1-6.5-2.1c-3.8,0-6.2,2.1-6.2,5.1v0c0,3.3,2.6,4.2,6,5c2.2,0.5,2.7,0.9,2.7,1.5v0c0,0.7-0.6,1.1-1.8,1.1
                                            c-1.8,0-3.6-0.7-5.2-1.9l-2.5,2.9c2,1.8,4.6,2.6,7.5,2.6c3.9,0,6.4-1.9,6.4-5.2v0C229.1,8.6,226.9,7.4,223.2,6.6"></path>
                                    </g>
                                    <g id="mark" transform="translate(0.000000, 1.000000)">
                                        <path id="Fill-20" class="st1" d="M51,8.5c-5,1.9-11.2,5.1-15,8.5l3-8.5L36,0C39.8,3.4,46,6.6,51,8.5"></path>
                                        <polygon id="Fill-21" class="st2" points="34,0 28,0 31,8.5 28,17 34,17 37,8.5 			"></polygon>
                                        <polygon id="Fill-22" class="st3" points="25.9,0 14.1,0 11,8.5 14.1,17 25.9,17 29,8.5 			"></polygon>
                                        <polygon id="Fill-23" class="st4" points="13,0 0,0 0,3 11.8,3 			"></polygon>
                                        <polygon id="Fill-24" class="st4" points="11.8,14 0,14 0,17 13,17 			"></polygon>
                                        <polygon id="Fill-25" class="st4" points="9.4,8.5 10,7 0,7 0,10 10,10 			"></polygon>
                                    </g>
                                </g>
                            </g>
                            </svg>