<svg width="267" height="20" viewBox="0 0 267 20" fill="none" xmlns="http://www.w3.org/2000/svg">
<g clip-path="url(#clip0_2491_16780)">
<g style="mix-blend-mode:hard-light">
<g style="mix-blend-mode:hard-light">
<path d="M63.9434 15.1222L64.936 13.9222C65.5693 14.5785 66.3249 15.0977 67.158 15.4489C67.9911 15.8001 68.8846 15.9762 69.7854 15.9667C71.684 15.9667 72.9316 14.9333 72.9316 13.5056V13.4667C72.9316 12.1222 72.2264 11.3556 69.2593 10.7167C66.0046 9.9889 64.5129 8.91668 64.5129 6.53334V6.49445C64.5129 4.21667 66.4711 2.54444 69.1562 2.54444C70.9695 2.49119 72.7385 3.1241 74.125 4.32223L73.1974 5.58333C72.0675 4.57224 70.6187 4.01383 69.1182 4.01112C67.2794 4.01112 66.1077 5.04445 66.1077 6.35V6.3889C66.1077 7.75556 66.8346 8.52223 69.9428 9.20557C73.0509 9.8889 74.5481 11.0889 74.5481 13.3V13.3389C74.5481 15.8222 72.5302 17.4389 69.7204 17.4389C67.5744 17.4623 65.5033 16.6318 63.9434 15.1222Z" fill="#2C4269"></path>
</g>
<g style="mix-blend-mode:hard-light">
<path d="M76.9732 10.0333V9.98889C76.9478 9.01239 77.1141 8.04061 77.4624 7.13119C77.8106 6.22178 78.3336 5.39325 79.0004 4.69479C79.6672 3.99633 80.4642 3.44215 81.3441 3.06513C82.224 2.68811 83.1688 2.49593 84.1226 2.5C85.1473 2.46922 86.167 2.65734 87.1168 3.05237C88.0666 3.4474 88.9256 4.04069 89.6392 4.79445L88.5543 5.99445C87.9831 5.3735 87.295 4.87758 86.5314 4.53669C85.7678 4.1958 84.9447 4.01701 84.1117 4.01111C80.9764 4.01111 78.6331 6.61667 78.6331 9.95V9.98889C78.6331 13.3222 80.9981 15.9667 84.1117 15.9667C86.0483 15.9667 87.323 15.2056 88.6737 13.8778L89.726 14.9333C89.0194 15.7521 88.1474 16.4037 87.1705 16.843C86.1936 17.2824 85.1351 17.4989 84.0683 17.4778C79.9729 17.4778 76.9732 14.2 76.9732 10.0333Z" fill="#2C4269"></path>
</g>
<g style="mix-blend-mode:hard-light">
<path d="M92.709 2.75H94.3038V9.19999H102.467V2.75H104.062V17.2333H102.467V10.7167H94.3038V17.2333H92.709V2.75Z" fill="#2C4269"></path>
</g>
<g style="mix-blend-mode:hard-light">
<path d="M108.662 2.75H110.289L115.442 10.65L120.595 2.75H122.223V17.2333H120.595V5.49999L115.448 13.2778H115.366L110.213 5.53888V17.25H108.656L108.662 2.75Z" fill="#2C4269"></path>
</g>
<g style="mix-blend-mode:hard-light">
<path d="M127.35 2.75H128.944V17.2333H127.35V2.75Z" fill="#2C4269"></path>
</g>
<g style="mix-blend-mode:hard-light">
<path d="M134.092 2.75H139.001C143.449 2.75 146.519 5.87222 146.519 9.97222V10.0111C146.519 14.0889 143.449 17.2333 139.001 17.2333H134.092V2.75ZM139.001 15.7222C142.576 15.7222 144.859 13.2389 144.859 10.0333V9.98889C144.859 6.78333 142.576 4.2611 139.001 4.2611H135.692V15.7222H139.001Z" fill="#2C4269"></path>
</g>
<g style="mix-blend-mode:hard-light">
<path d="M152.795 4.2611H148.049V2.75H159.169V4.2611H154.417V17.2333H152.79L152.795 4.2611Z" fill="#2C4269"></path>
</g>
<g style="mix-blend-mode:hard-light">
<path d="M167.057 2.75H178.372V6.26666H170.978V8.72777H177.661V12.0611H170.978V17.2333H167.057V2.75Z" fill="#2C4269"></path>
</g>
<g style="mix-blend-mode:hard-light">
<path d="M180.568 10.8667V2.75H184.55V10.7944C184.55 12.8889 185.58 13.8778 187.154 13.8778C188.727 13.8778 189.763 12.9278 189.763 10.9V2.75H193.744V10.7778C193.744 15.45 191.135 17.5 187.116 17.5C183.096 17.5 180.568 15.4111 180.568 10.8667Z" fill="#2C4269"></path>
</g>
<g style="mix-blend-mode:hard-light">
<path d="M200.123 6.26666H195.881V2.75H208.286V6.26666H204.039V17.2333H200.123V6.26666Z" fill="#2C4269"></path>
</g>
<g style="mix-blend-mode:hard-light">
<path d="M210.424 10.8667V2.75H214.405V10.7944C214.405 12.8889 215.431 13.8778 217.009 13.8778C218.588 13.8778 219.613 12.9278 219.613 10.9V2.75H223.594V10.7778C223.594 15.45 220.991 17.5 216.966 17.5C212.941 17.5 210.424 15.4111 210.424 10.8667Z" fill="#2C4269"></path>
</g>
<g style="mix-blend-mode:hard-light">
<path d="M226.117 2.75H232.805C234.975 2.75 236.462 3.30555 237.411 4.32221C237.836 4.76475 238.168 5.29302 238.383 5.87352C238.599 6.45403 238.694 7.07411 238.664 7.69444V7.73332C238.694 8.69331 238.429 9.63884 237.907 10.4363C237.384 11.2338 236.63 11.843 235.751 12.1778L239.125 17.2278H234.601L231.753 12.8389H230.039V17.2278H226.117V2.75ZM232.626 9.69999C233.961 9.69999 234.731 9.03888 234.731 7.98332V7.94443C234.731 6.80554 233.923 6.22222 232.61 6.22222H230.044V9.69999H232.626Z" fill="#2C4269"></path>
</g>
<g style="mix-blend-mode:hard-light">
<path d="M241.246 2.75H252.637V6.1611H245.125V8.38332H251.927V11.55H245.125V13.8444H252.719V17.2611H241.246V2.75Z" fill="#2C4269"></path>
</g>
<g style="mix-blend-mode:hard-light">
<path d="M254.639 15.0778L256.808 12.4111C258.094 13.5153 259.714 14.1297 261.392 14.15C262.444 14.15 263.019 13.7778 263.019 13.1555V13.1167C263.019 12.5167 262.553 12.1833 260.638 11.7278C257.628 11.0222 255.3 10.1555 255.3 7.17776V7.13333C255.3 4.44444 257.383 2.49999 260.779 2.49999C262.878 2.41748 264.938 3.09841 266.594 4.42221L264.636 7.26111C263.488 6.3845 262.107 5.88649 260.676 5.83333C259.727 5.83333 259.26 6.24443 259.26 6.7611V6.80555C259.26 7.46666 259.748 7.75555 261.707 8.2111C264.961 8.93333 266.979 10.0111 266.979 12.7222V12.7611C266.979 15.7222 264.696 17.4778 261.262 17.4778C258.842 17.5355 256.485 16.6815 254.639 15.0778Z" fill="#2C4269"></path>
</g>
</g>
<path d="M13.241 3.82778H0V0H14.5916L13.241 3.82778Z" fill="#2C4269"></path>
<path d="M14.6034 20H0.0117188V16.1722H13.2418L14.6034 20Z" fill="#2C4269"></path>
<path d="M59.6577 10C53.8319 12.2222 46.5958 15.9944 42.1152 20L45.6465 10L42.1152 0C46.5958 4.00556 53.8319 7.78333 59.6577 10Z" fill="#FFCB05"></path>
<path d="M33.6484 19.3167L36.941 10L33.6484 0.683334H39.2193L42.5065 10L39.2193 19.3167H33.6484Z" fill="#75C7C5"></path>
<path d="M38.7474 1.36667L41.7959 10L38.7474 18.6444H34.5978L37.4835 10.4722L37.6463 10.0111L37.4835 9.54444L34.5978 1.37779H38.7474V1.36667ZM39.6858 0.0111084H32.6992L36.2305 10.0111L32.6992 20.0111H39.6858L43.2171 10.0111L39.6858 0.0111084Z" fill="#75C7C5"></path>
<path d="M17.1739 19.3167L13.8867 10L17.1739 0.683334H29.8724L33.165 10L29.8724 19.3167H17.1739Z" fill="#005DA5"></path>
<path d="M29.4056 1.36667L32.4541 10L29.4056 18.6444H17.6401L14.5916 10.0111L17.6401 1.37779H29.4056V1.36667ZM30.344 0.0111084H16.7071L13.1758 10.0111L16.7071 20.0111H30.344L33.8753 10.0111L30.344 0.0111084Z" fill="#005DA5"></path>
<path d="M11.7284 11.9111H0.0117188V8.08333H11.7284L11.0612 9.99444L11.7284 11.9111Z" fill="#2C4269"></path>
</g>
<defs>
<clipPath id="clip0_2491_16780">
<rect width="267" height="20" fill="white"></rect>
</clipPath>
</defs>
</svg>